<?xml version="1.0" encoding="UTF-8" standalone="no"?>
<!-- Created with Inkscape (http://www.inkscape.org/) -->

<svg
   xmlns:dc="http://purl.org/dc/elements/1.1/"
   xmlns:cc="http://creativecommons.org/ns#"
   xmlns:rdf="http://www.w3.org/1999/02/22-rdf-syntax-ns#"
   xmlns:svg="http://www.w3.org/2000/svg"
   xmlns="http://www.w3.org/2000/svg"
   xmlns:sodipodi="http://sodipodi.sourceforge.net/DTD/sodipodi-0.dtd"
   xmlns:inkscape="http://www.inkscape.org/namespaces/inkscape"
   width="2208"
   height="2208"
   id="svg2"
   version="1.1"
   inkscape:version="0.48.5 r10040"
   inkscape:export-filename="/media/ernest/Datos/Dev/Android/Mobil-Mimelfi/MySubjects/splash.png"
   inkscape:export-xdpi="90"
   inkscape:export-ydpi="90"
   sodipodi:docname="Documento nuevo 1">
  <defs
     id="defs4">
    <linearGradient
       id="linearGradient7642">
      <stop
         id="stop7650"
         offset="0"
         style="stop-color:#263238;stop-opacity:1;" />
      <stop
         id="stop7648"
         offset="1"
         style="stop-color:#37474f;stop-opacity:1;" />
    </linearGradient>
  </defs>
  <sodipodi:namedview
     id="base"
     pagecolor="#ffffff"
     bordercolor="#666666"
     borderopacity="1.0"
     inkscape:pageopacity="0.0"
     inkscape:pageshadow="2"
     inkscape:zoom="0.175"
     inkscape:cx="277.62181"
     inkscape:cy="1193.8257"
     inkscape:document-units="px"
     inkscape:current-layer="layer1"
     showgrid="false"
     inkscape:window-width="1364"
     inkscape:window-height="709"
     inkscape:window-x="0"
     inkscape:window-y="28"
     inkscape:window-maximized="1" />
  <metadata
     id="metadata7">
    <rdf:RDF>
      <cc:Work
         rdf:about="">
        <dc:format>image/svg+xml</dc:format>
        <dc:type
           rdf:resource="http://purl.org/dc/dcmitype/StillImage" />
        <dc:title></dc:title>
      </cc:Work>
    </rdf:RDF>
  </metadata>
  <g
     inkscape:label="Capa 1"
     inkscape:groupmode="layer"
     id="layer1"
     transform="translate(0,1155.6378)">
    <rect
       style="fill:#b71c1c;fill-opacity:1;fill-rule:nonzero;stroke:none"
       id="rect2985"
       width="2208"
       height="2208"
       x="0"
       y="-1155.6378"
       rx="0.13521802" />
    <flowRoot
       xml:space="preserve"
       id="flowRoot3127"
       style="fill:black;stroke:none;stroke-opacity:1;stroke-width:1px;stroke-linejoin:miter;stroke-linecap:butt;fill-opacity:1;font-family:Sans;font-style:normal;font-weight:normal;font-size:10px;line-height:125%;letter-spacing:0px;word-spacing:0px"><flowRegion
         id="flowRegion3129"><rect
           id="rect3131"
           width="1147.5333"
           height="492.95444"
           x="638.41638"
           y="1222.0911" /></flowRegion><flowPara
         id="flowPara3133"></flowPara></flowRoot>    <flowRoot
       xml:space="preserve"
       id="flowRoot3135"
       style="fill:#ffffff;stroke:none;stroke-opacity:1;stroke-width:1px;stroke-linejoin:miter;stroke-linecap:butt;fill-opacity:1;font-family:Sans;font-style:normal;font-weight:normal;font-size:48px;line-height:125%;letter-spacing:0px;word-spacing:0px"><flowRegion
         id="flowRegion3137"><rect
           id="rect3139"
           width="1260.6704"
           height="581.84784"
           x="565.68542"
           y="1205.9287"
           style="fill:#ffffff;font-size:48px" /></flowRegion><flowPara
         id="flowPara3141"></flowPara></flowRoot>    <flowRoot
       xml:space="preserve"
       id="flowRoot3143"
       style="fill:black;stroke:none;stroke-opacity:1;stroke-width:1px;stroke-linejoin:miter;stroke-linecap:butt;fill-opacity:1;font-family:Sans;font-style:normal;font-weight:normal;font-size:10px;line-height:125%;letter-spacing:0px;word-spacing:0px"><flowRegion
         id="flowRegion3145"><rect
           id="rect3147"
           width="1389.9698"
           height="1058.6399"
           x="-1858.6807"
           y="955.41083" /></flowRegion><flowPara
         id="flowPara3149"></flowPara></flowRoot>    <text
       xml:space="preserve"
       style="font-size:10px;font-style:normal;font-weight:normal;line-height:125%;letter-spacing:0px;word-spacing:0px;fill:#000000;fill-opacity:1;stroke:none;font-family:Sans"
       x="1155.6145"
       y="1666.5582"
       id="text3169"
       sodipodi:linespacing="125%"
       transform="translate(0,-1155.6378)"><tspan
         sodipodi:role="line"
         id="tspan3171"
         x="1155.6145"
         y="1666.5582">S</tspan></text>
    <path
       inkscape:connector-curvature="0"
       d="m 1036.6926,-383.78815 c -0.6331,-3.91834 3.8995,-4.61497 6.396,-5.98115 3.8188,6.36754 1.9558,13.86816 2.277,20.87999 -0.4479,7.9646 1.5418,16.3165 -1.7488,23.92095 -3.1978,-0.48965 -7.5232,-1.95909 -6.9242,-6.05767 -0.085,-10.92905 -0.185,-21.85921 0,-32.76212 z"
       id="path3341"
       style="fill:#ffffff;fill-opacity:1" />
    <path
       inkscape:connector-curvature="0"
       d="m 1210.8519,-384.71691 c 1.4025,-4.30483 7.0969,-6.2124 8.9724,-1.05701 0.5871,11.57487 0.2409,23.22527 0.207,34.82499 0.7013,4.66566 -6.649,7.91446 -8.2247,2.50085 -1.4615,-11.96107 0.4604,-24.20525 -0.9547,-36.26883 z"
       id="path3343"
       style="fill:#ffffff;fill-opacity:1" />
    <path
       inkscape:connector-curvature="0"
       d="m 984.16826,-372.00886 c 14.6211,0 29.24224,0 43.82774,0 0.5055,9.30593 -1.3237,18.97228 1.2075,27.99398 4.3714,9.64092 19.326,9.56406 23.5248,-0.0932 2.9908,-8.9448 1.242,-18.63713 1.6899,-27.89093 49.4071,0.0344 98.8143,0 148.2428,0 0.2535,8.81565 -0.8279,17.7863 0.6675,26.52456 3.0372,10.00133 17.9911,11.85754 23.3053,2.86132 4.4523,-9.04782 1.6685,-19.66788 2.4162,-29.38588 14.3794,0 28.7927,0 43.1721,0 0.012,14.58948 -0.012,29.20518 0.012,43.79542 -96.0231,0.0808 -192.0465,0 -288.06894,0.0464 -0.021,-14.61575 -0.013,-29.23157 -0.013,-43.84614 z"
       id="path3345"
       style="fill:#ffffff;fill-opacity:1" />
    <path
       inkscape:connector-curvature="0"
       d="m 1273.0502,-325.97085 c -1.3812,46.0383 -0.6335,92.18066 -0.828,138.26912 -13.5853,0.0942 -27.1706,-0.17878 -40.756,0.0464 -6.442,-0.30881 -11.8151,5.7228 -11.3886,12.03829 -0.207,13.35246 0.025,26.73087 -0.025,40.10927 -78.5899,0.0344 -157.216,-0.0344 -235.83424,0.0344 0.3651,-61.22228 -0.9106,-122.49321 0.727,-183.71316 95.70934,0.0926 191.39354,-0.1035 287.07784,0.1256 0.2532,-1.72514 0.7958,-5.18108 1.0569,-6.9061 z"
       id="path3347"
       style="fill:#ffffff;fill-opacity:1" />
    <path
       inkscape:connector-curvature="0"
       d="m 1220.0313,-292.74381 c 8.8117,0 17.6111,0 26.4229,0 0,8.58389 0,17.1945 0,25.80308 -8.8118,-0.0344 -17.6236,-0.0344 -26.4229,-0.0344 0,-8.58382 0,-17.16766 0,-25.77732 z"
       id="path3349"
       style="fill:#b71c1c;fill-opacity:1" />
    <path
       inkscape:connector-curvature="0"
       d="m 1150.4362,-292.74381 c 8.5708,0 17.1632,0 25.768,0 0,8.61041 0,17.1945 0,25.77815 -8.6048,0 -17.1972,0 -25.768,0 0,-8.58365 0,-17.16774 0,-25.77815 z"
       id="path3351"
       style="fill:#b71c1c;fill-opacity:1" />
    <path
       inkscape:connector-curvature="0"
       d="m 1185.223,-292.74381 c 8.8332,0 17.6112,0 26.4105,0 0.013,8.61041 0.013,17.1945 0.013,25.77815 -8.8118,0 -17.5898,0 -26.423,0 0,-8.58365 0,-17.19426 0,-25.77815 z"
       id="path3353"
       style="fill:#b71c1c;fill-opacity:1" />
    <path
       inkscape:connector-curvature="0"
       d="m 1010.5914,-257.94468 c 8.5934,0 17.1624,0 25.7675,0 0,8.81563 0,17.60664 0,26.42296 -8.6051,0 -17.1741,0 -25.7676,0 0,-8.81632 0,-17.60733 0,-26.42296 z"
       id="path3355"
       style="fill:#b71c1c;fill-opacity:1" />
    <path
       inkscape:connector-curvature="0"
       d="m 1045.3995,-257.94468 c 8.8118,0 17.5897,0 26.4016,0 0,8.81563 0,17.60664 0,26.42296 -8.8119,0 -17.5898,0 -26.4016,0 0,-8.81632 0,-17.60733 0,-26.42296 z"
       id="path3357"
       style="fill:#b71c1c;fill-opacity:1" />
    <path
       inkscape:connector-curvature="0"
       d="m 1080.1863,-257.94468 c 8.8118,0 17.6111,0 26.4229,0 0,8.81563 0,17.60664 0,26.42296 -8.8118,0 -17.6111,0 -26.4229,0 0,-8.81632 0,-17.60733 0,-26.42296 z"
       id="path3359"
       style="fill:#b71c1c;fill-opacity:1" />
    <path
       inkscape:connector-curvature="0"
       d="m 1114.9945,-257.94468 c 8.8118,0 17.5897,0 26.4229,0 0,8.81563 0,17.60664 0,26.42296 -8.8332,0 -17.6111,0 -26.4229,0 0,-8.81632 0,-17.60733 0,-26.42296 z"
       id="path3361"
       style="fill:#b71c1c;fill-opacity:1" />
    <path
       inkscape:connector-curvature="0"
       d="m 1150.4362,-257.94468 c 8.5708,0 17.1632,0 25.768,0 0,8.81563 0,17.60664 0,26.42296 -8.6048,0 -17.1972,0 -25.768,0 0,-8.81632 0,-17.60733 0,-26.42296 z"
       id="path3363"
       style="fill:#b71c1c;fill-opacity:1" />
    <path
       inkscape:connector-curvature="0"
       d="m 1185.223,-257.94468 c 8.7993,0 17.6112,0 26.423,0 0,8.81563 0,17.60664 0,26.42296 -8.8118,0 -17.6237,0 -26.423,0 0,-8.81632 0,-17.60733 0,-26.42296 z"
       id="path3365"
       style="fill:#b71c1c;fill-opacity:1" />
    <path
       inkscape:connector-curvature="0"
       d="m 1220.0313,-257.94468 c 8.8117,0 17.6111,0 26.4229,0 0,8.81563 0,17.60664 0,26.42296 -8.8118,0 -17.6112,0 -26.4229,0 0,-8.81632 0,-17.60733 0,-26.42296 z"
       id="path3367"
       style="fill:#b71c1c;fill-opacity:1" />
    <path
       inkscape:connector-curvature="0"
       d="m 1010.5914,-223.14557 c 8.5934,0 17.1624,0 25.7675,0 0,8.8161 -0.013,17.60725 0,26.42209 -8.5705,0 -17.1741,0 -25.7676,0 0,-8.81484 0,-17.60599 0,-26.42209 z"
       id="path3369"
       style="fill:#b71c1c;fill-opacity:1" />
    <path
       inkscape:connector-curvature="0"
       d="m 1080.1863,-223.14557 c 8.8118,0 17.6111,0 26.4229,0 0,8.8161 -0.013,17.60725 0,26.42209 -8.8118,0 -17.6111,0 -26.4229,0 0,-8.81484 0,-17.60599 0,-26.42209 z"
       id="path3371"
       style="fill:#b71c1c;fill-opacity:1" />
    <path
       inkscape:connector-curvature="0"
       d="m 1150.4362,-223.14557 c 8.5708,0 17.1632,0 25.768,0 0,8.8161 -0.013,17.60725 0,26.42209 -8.5709,0 -17.1972,0 -25.768,0 0,-8.81484 0,-17.60599 0,-26.42209 z"
       id="path3373"
       style="fill:#b71c1c;fill-opacity:1" />
    <path
       inkscape:connector-curvature="0"
       d="m 1220.0313,-223.14557 c 8.8117,0 17.6111,0 26.4229,0 0,8.8161 0,17.60725 0,26.42209 -8.8118,0 -17.6236,0 -26.4229,0 0,-8.81484 0,-17.60599 0,-26.42209 z"
       id="path3375"
       style="fill:#b71c1c;fill-opacity:1" />
    <path
       inkscape:connector-curvature="0"
       d="m 1045.412,-223.14557 c 8.7993,0 17.5772,0 26.3891,0 0,8.8161 0,17.60725 0,26.42209 -8.8119,0 -17.5898,0 -26.4016,0 0,-8.78967 0,-17.60599 0.013,-26.42209 z"
       id="path3377"
       style="fill:#b71c1c;fill-opacity:1" />
    <path
       inkscape:connector-curvature="0"
       d="m 1115.007,-223.14557 c 8.7993,0 17.5772,0 26.4104,0 0,8.8161 0,17.60725 0,26.42209 -8.8332,0 -17.6111,0 -26.4229,0 0,-8.78967 0,-17.60599 0.013,-26.42209 z"
       id="path3379"
       style="fill:#b71c1c;fill-opacity:1" />
    <path
       inkscape:connector-curvature="0"
       d="m 1185.223,-223.14557 c 8.7993,0 17.6112,0 26.4105,0 0.013,8.8161 0.013,17.63242 0.013,26.42209 -8.8118,0 -17.6238,0 -26.423,0 0,-8.81484 0,-17.60599 0,-26.42209 z"
       id="path3381"
       style="fill:#b71c1c;fill-opacity:1" />
    <path
       inkscape:connector-curvature="0"
       d="m 1080.1863,-187.70173 c 8.8118,0 17.6111,0 26.4229,0.0344 0,8.58379 0,17.16759 0,25.75139 -8.8118,0 -17.6111,0 -26.389,0.0344 -0.013,-8.60973 -0.013,-17.21939 -0.013,-25.80321 z"
       id="path3383"
       style="fill:#b71c1c;fill-opacity:1" />
    <path
       inkscape:connector-curvature="0"
       d="m 1010.5914,-187.70173 c 8.5934,0 17.1624,0 25.7675,0 0,8.58374 0,17.1933 0,25.77716 -8.6051,0 -17.1741,0 -25.7676,0 0,-8.58386 0,-17.19342 0,-25.77716 z"
       id="path3385"
       style="fill:#b71c1c;fill-opacity:1" />
    <path
       inkscape:connector-curvature="0"
       d="m 1045.3995,-187.70173 c 8.8118,0 17.5897,0 26.4016,0 0,8.58374 0,17.1933 0,25.77716 -8.8119,0 -17.5898,0 -26.4016,0 0,-8.58386 0,-17.19342 0,-25.77716 z"
       id="path3387"
       style="fill:#b71c1c;fill-opacity:1" />
    <path
       inkscape:connector-curvature="0"
       d="m 1114.9945,-187.70173 c 8.8118,0 17.5897,0 26.4229,0 0,8.58374 0,17.1933 0,25.77716 -8.8332,0 -17.6111,0 -26.4229,0 0,-8.58386 0,-17.19342 0,-25.77716 z"
       id="path3389"
       style="fill:#b71c1c;fill-opacity:1" />
    <path
       inkscape:connector-curvature="0"
       d="m 1228.7503,-178.62794 c 12.2166,-1.64943 24.5938,0 36.8228,-1.34069 -12.884,11.57398 -24.8936,24.15427 -37.1102,36.44875 0.2195,-11.7025 0.013,-23.40421 0.2873,-35.10806 z"
       id="path3391"
       style="fill:#ffffff;fill-opacity:1" />
    <path
       inkscape:connector-curvature="0"
       d="m 1124.7271,-45.410307 c 5.3945,0 10.789,0 16.196,0 -0.013,14.434101 0.05,28.8707 -0.038,43.3048204 5.7738,-7.49997 13.8652,-14.2033104 23.8652,-14.1006504 20.1859,-1.442409 38.7188,16.31853034 38.4875,36.50189 2.0118,19.125143 -11.397,39.308538 -30.9056,42.145638 -11.9386,2.344 -23.4103,-3.7136 -31.5021,-12.0396 0.025,2.8119 0.075,8.4549 0.2057,11.2668 -5.4129,0.029 -10.8527,0 -16.2629,0.029 0,-35.700885 -0.013,-71.4024876 0,-107.104268 z"
       id="path3393"
       style="fill:#ffffff" />
    <path
       inkscape:connector-curvature="0"
       d="m 1224.7245,-45.978627 c 5.9352,-4.69111 15.6339,-0.15764 16.1157,7.29529 1.0939,7.295411 -7.3039,13.714181 -14.0332,10.594441 -7.3503,-2.62965 -8.7315,-13.686241 -2.0825,-17.889731 z"
       id="path3395"
       style="fill:#ffffff" />
    <path
       inkscape:connector-curvature="0"
       d="m 961.93406,-39.842767 c 16.7924,-4.5369 35.1979,-0.12798 49.07134,10.129611 -3.0265,4.22875 -6.0173,8.48072 -9.0083,12.708729 -10.72164,-7.012019 -24.52194,-11.548749 -37.10844,-7.166499 -8.5142,2.50083 -9.8829,15.4924894 -2.3241,19.9258794 14.3699,7.91412 33.1889,6.77993 45.12544,19.1779896 11.2176,12.991623 6.6752,35.804548 -9.02604,43.176148 -20.7307,10.0534 -46.1989,3.3018 -62.9459,-11.4183 3.5396,-4.279395 7.0711,-8.583685 10.6026,-12.862985 11.4609,9.43529 27.2893,16.755985 42.0904,11.238585 8.8463,-2.861695 10.631,-16.523025 2.0358,-20.802125 -13.0084,-6.984783 -29.2605,-6.211753 -41.1435,-15.6718926 -9.3864,-6.83046 -11.1271,-20.1328304 -7.9279,-30.5982894 2.901,-9.25318 11.5942,-15.28553 20.5586,-17.836851 z"
       id="path3397"
       style="fill:#ffffff" />
    <path
       inkscape:connector-curvature="0"
       d="m 717.14286,-39.147627 c 8.8921,-0.0806 17.7469,-0.0444 26.6671,-0.0444 10.0627,21.161681 20.2792,42.2490204 30.4138,63.386113 9.9815,-21.1370926 20.4413,-42.042782 30.2519,-63.284153 8.8921,-0.15625 17.7838,-0.127 26.6749,-0.0363 -0.053,33.5882504 -0.021,67.201443 -0.021,100.788958 -5.6719,0.029 -11.3684,0.029 -17.0485,0.029 -0.013,-26.215995 0.022,-52.4574676 -0.013,-78.671488 -11.8054,23.2505404 -23.4654,46.604543 -35.2369,69.881488 -2.3711,-0.03 -7.1143,-0.03 -9.4856,-0.03 -11.7338,-23.276425 -23.3021,-46.6305076 -35.0566,-69.907298 -0.013,26.2411504 0,52.482063 0,78.723298 -5.697,0 -11.3935,0 -17.066,-0.029 0,-33.613815 0.022,-67.2010776 -0.022,-100.814948 z"
       id="path3399"
       style="fill:#ffffff" />
    <path
       inkscape:connector-curvature="0"
       d="m 1437.8227,-39.198677 c 5.3945,0 10.7676,0 16.196,0 -0.013,8.017961 0,16.058611 0,24.10152 6.7292,-0.0452 13.4374,-0.0356 20.2003,-0.0356 -0.012,4.3308 -0.012,8.6870204 0,13.0177704 -6.7629,-0.0351 -13.4711,0.0352 -20.2003,0 0.4729,14.6670796 -1.0689,29.4888526 0.7601,44.0793826 2.8641,9.252995 14.7934,7.758095 20.6484,2.344995 2.0236,3.7893 4.1524,7.5271 6.2225,11.3418 -5.5212,3.4806 -11.3297,7.2182 -18.1054,7.141 -12.3094,0.8507 -24.1923,-9.0486 -25.2737,-21.395695 -1.0689,-14.46069 -0.091,-28.999023 -0.4479,-43.5114826 -3.2442,0 -6.4759,0 -9.6737,0 -0.013,-4.33075 -0.013,-8.6869704 -0.013,-13.0177704 3.2103,0 6.442,0 9.6523,0 0,-8.016619 0,-16.059289 0.013,-24.0757 z"
       id="path3401"
       style="fill:#ffffff" />
    <path
       inkscape:connector-curvature="0"
       d="m 846.26886,-15.097157 c 5.7746,-0.0356 11.5131,-0.0356 17.2512,-0.0452 7.7205,18.8429204 15.3242,37.737513 23.0089,56.606953 7.6855,-18.86944 15.2892,-37.7381426 22.9813,-56.581333 5.7746,0 11.5411,0 17.3157,0 -11.8746,29.10197 -23.8019,58.153133 -35.6023,87.281228 -3.1907,9.202504 -10.1805,17.941104 -20.2708,19.693904 -8.6406,1.934 -16.9554,-1.9845 -23.8024,-6.9081 2.3242,-4.2526 4.6491,-8.5068 6.8927,-12.785804 2.9085,1.573504 6.018,2.707604 9.0614,3.867504 8.9285,2.2426 17.5327,-8.791004 12.6678,-16.781004 -9.477,-24.927355 -19.6487,-49.5957776 -29.5035,-74.342148 z"
       id="path3403"
       style="fill:#ffffff" />
    <path
       inkscape:connector-curvature="0"
       d="m 1031.0785,-15.097157 c 5.395,-0.0452 10.7556,-0.0356 16.1501,-0.0452 0.075,14.53820034 -0.194,29.07668 0.062,43.615133 0.062,6.28987 1.6494,13.42942 7.2453,17.115915 11.6277,7.3209 29.7972,-0.6446 30.6731,-14.822515 0.9278,-15.285233 0.062,-30.59710266 0.3862,-45.882913 5.3881,0 10.7775,0 16.1624,0 0,25.59671 0,51.219133 0.013,76.815528 -5.4402,0 -10.8515,0 -16.2661,-0.029 0.025,-4.4595 0.075,-8.919 0.282,-13.3784 -8.5813,13.765 -27.8102,18.9719 -41.8084,10.4137 -8.8925,-5.0779 -12.8624,-15.620795 -12.8624,-25.442145 -0.2833,-16.110173 0,-32.2469026 -0.045,-48.357983 z"
       id="path3405"
       style="fill:#ffffff" />
    <path
       inkscape:connector-curvature="0"
       d="m 1222.6884,-15.122467 c 5.3945,0 10.8015,0 16.1747,0 -0.038,27.37512 0.2069,54.775563 -0.05,82.150758 0.3843,12.501704 -9.6413,24.359204 -22.2998,25.107004 -7.9683,1.1343 -15.2081,-2.8086 -21.4749,-7.1918 2.4007,-3.9678 4.82,-7.9139 7.1911,-11.9075 4.6435,2.551 10.3135,6.2363 15.6005,2.9882 4.9195,-2.8344 4.896,-9.174604 4.9195,-14.151504 -0.025,-25.647665 -0.025,-51.321938 -0.013,-76.995158 z"
       id="path3407"
       style="fill:#ffffff" />
    <path
       inkscape:connector-curvature="0"
       d="m 1272.0152,-8.8325466 c 16.6439,-12.3998894 43.4005,-8.9195694 55.3762,8.32601994 6.2689,8.99540006 5.407,20.44089966 5.4748,30.85377266 -20.2682,0.0805 -40.5364,-0.0804 -60.7707,0.0805 3.8991,21.138045 33.4734,23.895145 46.6108,9.76895 3.0246,3.4027 6.0743,6.754295 9.099,10.156995 -14.7131,13.9194 -39.4211,17.2453 -56.1239,5.0523 -20.568,-14.512595 -20.5805,-50.0070576 0.3337,-64.2364976 z"
       id="path3409"
       style="fill:#ffffff" />
    <path
       inkscape:connector-curvature="0"
       d="m 1357.0585,-3.6767466 c 15.6088,-16.5231494 44.0805,-16.5503894 60.3693,-0.98012 -3.1175,3.96852994 -6.3278,7.88674 -9.4453,11.85737 -5.8086,-3.89261 -11.9508,-8.22231 -19.2208,-8.35116 -12.3897,-0.9801 -25.181,8.68571 -25.8948,21.4715896 -1.8968,13.815473 9.7201,27.425958 23.6516,27.710358 8.5924,0.7992 15.9552,-4.252995 22.1313,-9.589235 3.13,3.47944 6.3153,6.960735 9.5131,10.439035 -8.1783,7.3739 -18.1518,13.405 -29.4137,13.8681 -17.1044,1.7031 -34.728,-9.0736 -40.0886,-25.518735 -4.3934,-13.78956 -2.2431,-30.4691526 8.3978,-40.9072026 z"
       id="path3411"
       style="fill:#ffffff" />
    <path
       inkscape:connector-curvature="0"
       d="m 1499.8943,-10.121957 c 13.6781,-9.537389 32.7382,-7.06174 46.2093,1.6507004 -2.0022,3.91797 -4.0044,7.80944994 -5.9814,11.75384 -8.765,-4.61508 -19.3726,-8.22238 -29.0463,-4.22862006 -4.6932,1.41836 -6.3617,8.94494006 -1.7488,11.47101966 11.2619,5.181 25.2148,5.67104 34.2675,15.080523 8.6976,10.43925 4.1316,28.277185 -8.2247,33.766685 -16.1496,7.6561 -35.108,1.7023 -49.027,-7.9385 2.5893,-4.1767 5.166,-8.377995 7.7768,-12.553705 9.0527,5.979705 19.8667,11.882905 31.0822,9.202605 5.8211,-0.9545 9.8468,-9.485235 3.8652,-13.016755 -10.2733,-7.06305 -24.5599,-6.70159 -33.3717,-16.214863 -8.0046,-8.22251 -4.9466,-22.8636796 4.1989,-28.97293 z"
       id="path3413"
       style="fill:#ffffff" />
    <path
       inkscape:connector-curvature="0"
       d="m 1157.799,-1.3067366 c 16.1157,-4.84561 31.6443,11.4199196 29.1603,27.2461926 -0.2873,15.74984 -18.705,27.581735 -32.9916,20.364935 -19.4064,-8.867495 -16.9901,-42.1715176 3.8313,-47.6111276 z"
       id="path3415"
       style="fill:#b71c1c;fill-opacity:1" />
    <path
       inkscape:connector-curvature="0"
       d="m 1272.1419,17.613483 c 0.9422,-18.14621966 25.7091,-26.1630996 38.5128,-14.6414996 4.5201,3.50619 5.2339,9.4095296 6.5223,14.5905596 -15.0004,0.17858 -30.0133,0.12683 -45.0351,0.0469 z"
       id="path3417"
       style="fill:#b71c1c;fill-opacity:1" />
  </g>
</svg>
